<mxfile host="app.diagrams.net" modified="2024-02-27T04:53:49.388Z" agent="Mozilla/5.0 (Windows NT 10.0; Win64; x64) AppleWebKit/537.36 (KHTML, like Gecko) Chrome/122.0.0.0 Safari/537.36" etag="zNuCk6ExLN7oKzbUo98_" version="23.1.7" type="device">
  <diagram id="R2lEEEUBdFMjLlhIrx00" name="Page-1">
    <mxGraphModel dx="2534" dy="824" grid="0" gridSize="10" guides="1" tooltips="1" connect="1" arrows="1" fold="1" page="1" pageScale="1" pageWidth="1100" pageHeight="1700" background="none" math="0" shadow="1" extFonts="Permanent Marker^https://fonts.googleapis.com/css?family=Permanent+Marker">
      <root>
        <mxCell id="0" />
        <mxCell id="1" parent="0" />
        <mxCell id="ptOe5hQjl_5FLp8h7pB1-3" value="user" style="whiteSpace=wrap;html=1;align=center;" parent="1" vertex="1">
          <mxGeometry x="80" y="160" width="100" height="40" as="geometry" />
        </mxCell>
        <mxCell id="ptOe5hQjl_5FLp8h7pB1-4" value="products" style="whiteSpace=wrap;html=1;align=center;" parent="1" vertex="1">
          <mxGeometry x="520" y="160" width="100" height="40" as="geometry" />
        </mxCell>
        <mxCell id="ptOe5hQjl_5FLp8h7pB1-5" value="cart" style="whiteSpace=wrap;html=1;align=center;" parent="1" vertex="1">
          <mxGeometry x="80" y="400" width="100" height="40" as="geometry" />
        </mxCell>
        <mxCell id="ptOe5hQjl_5FLp8h7pB1-6" value="orders" style="whiteSpace=wrap;html=1;align=center;" parent="1" vertex="1">
          <mxGeometry x="750" y="400" width="100" height="40" as="geometry" />
        </mxCell>
        <mxCell id="ptOe5hQjl_5FLp8h7pB1-7" value="donations" style="whiteSpace=wrap;html=1;align=center;" parent="1" vertex="1">
          <mxGeometry x="350" y="400" width="100" height="40" as="geometry" />
        </mxCell>
        <mxCell id="ptOe5hQjl_5FLp8h7pB1-8" value="name" style="ellipse;whiteSpace=wrap;html=1;align=center;" parent="1" vertex="1">
          <mxGeometry x="70" y="60" width="80" height="30" as="geometry" />
        </mxCell>
        <mxCell id="ptOe5hQjl_5FLp8h7pB1-9" value="email" style="ellipse;whiteSpace=wrap;html=1;align=center;" parent="1" vertex="1">
          <mxGeometry x="170" y="55" width="100" height="40" as="geometry" />
        </mxCell>
        <mxCell id="ptOe5hQjl_5FLp8h7pB1-11" value="id" style="ellipse;whiteSpace=wrap;html=1;align=center;fontStyle=4;" parent="1" vertex="1">
          <mxGeometry y="60" width="60" height="30" as="geometry" />
        </mxCell>
        <mxCell id="ptOe5hQjl_5FLp8h7pB1-12" value="" style="endArrow=none;html=1;rounded=0;exitX=0.5;exitY=1;exitDx=0;exitDy=0;entryX=0.33;entryY=-0.05;entryDx=0;entryDy=0;entryPerimeter=0;" parent="1" source="ptOe5hQjl_5FLp8h7pB1-11" target="ptOe5hQjl_5FLp8h7pB1-3" edge="1">
          <mxGeometry relative="1" as="geometry">
            <mxPoint x="340" y="330" as="sourcePoint" />
            <mxPoint x="500" y="330" as="targetPoint" />
          </mxGeometry>
        </mxCell>
        <mxCell id="ptOe5hQjl_5FLp8h7pB1-13" value="" style="endArrow=none;html=1;rounded=0;exitX=0.5;exitY=1;exitDx=0;exitDy=0;" parent="1" source="ptOe5hQjl_5FLp8h7pB1-8" edge="1">
          <mxGeometry relative="1" as="geometry">
            <mxPoint x="40" y="100" as="sourcePoint" />
            <mxPoint x="110" y="160" as="targetPoint" />
          </mxGeometry>
        </mxCell>
        <mxCell id="ptOe5hQjl_5FLp8h7pB1-14" value="" style="endArrow=none;html=1;rounded=0;exitX=0.381;exitY=0.961;exitDx=0;exitDy=0;exitPerimeter=0;" parent="1" source="ptOe5hQjl_5FLp8h7pB1-9" edge="1">
          <mxGeometry relative="1" as="geometry">
            <mxPoint x="210" y="100" as="sourcePoint" />
            <mxPoint x="110" y="160" as="targetPoint" />
          </mxGeometry>
        </mxCell>
        <mxCell id="ptOe5hQjl_5FLp8h7pB1-16" value="" style="endArrow=none;html=1;rounded=0;entryX=0;entryY=0.5;entryDx=0;entryDy=0;" parent="1" target="ptOe5hQjl_5FLp8h7pB1-4" edge="1">
          <mxGeometry relative="1" as="geometry">
            <mxPoint x="180" y="179.5" as="sourcePoint" />
            <mxPoint x="340" y="179.5" as="targetPoint" />
          </mxGeometry>
        </mxCell>
        <mxCell id="ptOe5hQjl_5FLp8h7pB1-15" value="buys" style="shape=rhombus;perimeter=rhombusPerimeter;whiteSpace=wrap;html=1;align=center;" parent="1" vertex="1">
          <mxGeometry x="270" y="150" width="120" height="60" as="geometry" />
        </mxCell>
        <mxCell id="ptOe5hQjl_5FLp8h7pB1-17" value="order date" style="ellipse;whiteSpace=wrap;html=1;align=center;" parent="1" vertex="1">
          <mxGeometry x="700" y="500" width="100" height="40" as="geometry" />
        </mxCell>
        <mxCell id="ptOe5hQjl_5FLp8h7pB1-18" value="Total Amount&lt;span style=&quot;white-space: pre;&quot;&gt;&#x9;&lt;/span&gt;" style="ellipse;whiteSpace=wrap;html=1;align=center;" parent="1" vertex="1">
          <mxGeometry x="810" y="500" width="100" height="40" as="geometry" />
        </mxCell>
        <mxCell id="ptOe5hQjl_5FLp8h7pB1-19" value="Status" style="ellipse;whiteSpace=wrap;html=1;align=center;" parent="1" vertex="1">
          <mxGeometry x="910" y="480" width="100" height="40" as="geometry" />
        </mxCell>
        <mxCell id="ptOe5hQjl_5FLp8h7pB1-20" value="" style="endArrow=none;html=1;rounded=0;exitX=0.5;exitY=0;exitDx=0;exitDy=0;" parent="1" source="ptOe5hQjl_5FLp8h7pB1-17" target="ptOe5hQjl_5FLp8h7pB1-6" edge="1">
          <mxGeometry width="50" height="50" relative="1" as="geometry">
            <mxPoint x="440" y="360" as="sourcePoint" />
            <mxPoint x="490" y="310" as="targetPoint" />
          </mxGeometry>
        </mxCell>
        <mxCell id="ptOe5hQjl_5FLp8h7pB1-21" value="" style="endArrow=none;html=1;rounded=0;exitX=0.5;exitY=0;exitDx=0;exitDy=0;entryX=0.5;entryY=1;entryDx=0;entryDy=0;" parent="1" source="ptOe5hQjl_5FLp8h7pB1-18" target="ptOe5hQjl_5FLp8h7pB1-6" edge="1">
          <mxGeometry width="50" height="50" relative="1" as="geometry">
            <mxPoint x="640" y="510" as="sourcePoint" />
            <mxPoint x="768" y="450" as="targetPoint" />
          </mxGeometry>
        </mxCell>
        <mxCell id="ptOe5hQjl_5FLp8h7pB1-22" value="" style="endArrow=none;html=1;rounded=0;exitX=0.5;exitY=0;exitDx=0;exitDy=0;entryX=1;entryY=1;entryDx=0;entryDy=0;" parent="1" source="ptOe5hQjl_5FLp8h7pB1-19" target="ptOe5hQjl_5FLp8h7pB1-6" edge="1">
          <mxGeometry width="50" height="50" relative="1" as="geometry">
            <mxPoint x="650" y="520" as="sourcePoint" />
            <mxPoint x="778" y="460" as="targetPoint" />
          </mxGeometry>
        </mxCell>
        <mxCell id="ptOe5hQjl_5FLp8h7pB1-25" value="order Id" style="ellipse;whiteSpace=wrap;html=1;align=center;fontStyle=4;" parent="1" vertex="1">
          <mxGeometry x="610" y="470" width="90" height="40" as="geometry" />
        </mxCell>
        <mxCell id="ptOe5hQjl_5FLp8h7pB1-26" value="" style="endArrow=none;html=1;rounded=0;entryX=0;entryY=1;entryDx=0;entryDy=0;" parent="1" source="ptOe5hQjl_5FLp8h7pB1-25" target="ptOe5hQjl_5FLp8h7pB1-6" edge="1">
          <mxGeometry width="50" height="50" relative="1" as="geometry">
            <mxPoint x="760" y="510" as="sourcePoint" />
            <mxPoint x="798" y="450" as="targetPoint" />
          </mxGeometry>
        </mxCell>
        <mxCell id="ptOe5hQjl_5FLp8h7pB1-27" value="Product ID" style="ellipse;whiteSpace=wrap;html=1;align=center;fontStyle=4;" parent="1" vertex="1">
          <mxGeometry x="470" y="50" width="100" height="40" as="geometry" />
        </mxCell>
        <mxCell id="ptOe5hQjl_5FLp8h7pB1-28" value="Name" style="ellipse;whiteSpace=wrap;html=1;align=center;" parent="1" vertex="1">
          <mxGeometry x="590" y="50" width="100" height="40" as="geometry" />
        </mxCell>
        <mxCell id="ptOe5hQjl_5FLp8h7pB1-29" value="Description" style="ellipse;whiteSpace=wrap;html=1;align=center;" parent="1" vertex="1">
          <mxGeometry x="680" y="100" width="100" height="40" as="geometry" />
        </mxCell>
        <mxCell id="ptOe5hQjl_5FLp8h7pB1-30" value="Price" style="ellipse;whiteSpace=wrap;html=1;align=center;" parent="1" vertex="1">
          <mxGeometry x="660" y="190" width="100" height="40" as="geometry" />
        </mxCell>
        <mxCell id="ptOe5hQjl_5FLp8h7pB1-31" value="" style="endArrow=none;html=1;rounded=0;entryX=0;entryY=0;entryDx=0;entryDy=0;exitX=0.5;exitY=1;exitDx=0;exitDy=0;" parent="1" source="ptOe5hQjl_5FLp8h7pB1-27" target="ptOe5hQjl_5FLp8h7pB1-4" edge="1">
          <mxGeometry width="50" height="50" relative="1" as="geometry">
            <mxPoint x="470" y="360" as="sourcePoint" />
            <mxPoint x="520" y="310" as="targetPoint" />
          </mxGeometry>
        </mxCell>
        <mxCell id="ptOe5hQjl_5FLp8h7pB1-32" value="" style="endArrow=none;html=1;rounded=0;entryX=0.5;entryY=0;entryDx=0;entryDy=0;exitX=0.5;exitY=1;exitDx=0;exitDy=0;" parent="1" source="ptOe5hQjl_5FLp8h7pB1-28" target="ptOe5hQjl_5FLp8h7pB1-4" edge="1">
          <mxGeometry width="50" height="50" relative="1" as="geometry">
            <mxPoint x="530" y="100" as="sourcePoint" />
            <mxPoint x="530" y="170" as="targetPoint" />
          </mxGeometry>
        </mxCell>
        <mxCell id="ptOe5hQjl_5FLp8h7pB1-33" value="" style="endArrow=none;html=1;rounded=0;entryX=1;entryY=0;entryDx=0;entryDy=0;exitX=0;exitY=1;exitDx=0;exitDy=0;" parent="1" source="ptOe5hQjl_5FLp8h7pB1-29" target="ptOe5hQjl_5FLp8h7pB1-4" edge="1">
          <mxGeometry width="50" height="50" relative="1" as="geometry">
            <mxPoint x="540" y="110" as="sourcePoint" />
            <mxPoint x="540" y="180" as="targetPoint" />
          </mxGeometry>
        </mxCell>
        <mxCell id="ptOe5hQjl_5FLp8h7pB1-34" value="" style="endArrow=none;html=1;rounded=0;entryX=1;entryY=0.75;entryDx=0;entryDy=0;exitX=0;exitY=0.5;exitDx=0;exitDy=0;" parent="1" source="ptOe5hQjl_5FLp8h7pB1-30" target="ptOe5hQjl_5FLp8h7pB1-4" edge="1">
          <mxGeometry width="50" height="50" relative="1" as="geometry">
            <mxPoint x="550" y="120" as="sourcePoint" />
            <mxPoint x="550" y="190" as="targetPoint" />
          </mxGeometry>
        </mxCell>
        <mxCell id="ptOe5hQjl_5FLp8h7pB1-35" value="Donation ID" style="ellipse;whiteSpace=wrap;html=1;align=center;fontStyle=4;" parent="1" vertex="1">
          <mxGeometry x="243" y="463" width="100" height="40" as="geometry" />
        </mxCell>
        <mxCell id="ptOe5hQjl_5FLp8h7pB1-36" value="donated Items" style="ellipse;whiteSpace=wrap;html=1;align=center;" parent="1" vertex="1">
          <mxGeometry x="350" y="483" width="100" height="40" as="geometry" />
        </mxCell>
        <mxCell id="ptOe5hQjl_5FLp8h7pB1-37" value="" style="endArrow=none;html=1;rounded=0;exitX=0.5;exitY=0;exitDx=0;exitDy=0;" parent="1" source="ptOe5hQjl_5FLp8h7pB1-35" edge="1">
          <mxGeometry width="50" height="50" relative="1" as="geometry">
            <mxPoint x="470" y="360" as="sourcePoint" />
            <mxPoint x="380" y="440" as="targetPoint" />
          </mxGeometry>
        </mxCell>
        <mxCell id="ptOe5hQjl_5FLp8h7pB1-38" value="" style="endArrow=none;html=1;rounded=0;exitX=0.5;exitY=0;exitDx=0;exitDy=0;entryX=0.5;entryY=1;entryDx=0;entryDy=0;" parent="1" source="ptOe5hQjl_5FLp8h7pB1-36" target="ptOe5hQjl_5FLp8h7pB1-7" edge="1">
          <mxGeometry width="50" height="50" relative="1" as="geometry">
            <mxPoint x="340" y="490" as="sourcePoint" />
            <mxPoint x="390" y="450" as="targetPoint" />
          </mxGeometry>
        </mxCell>
        <mxCell id="ptOe5hQjl_5FLp8h7pB1-39" value="" style="endArrow=none;html=1;rounded=0;entryX=0.41;entryY=1.025;entryDx=0;entryDy=0;entryPerimeter=0;exitX=0.5;exitY=0;exitDx=0;exitDy=0;" parent="1" source="ptOe5hQjl_5FLp8h7pB1-5" target="ptOe5hQjl_5FLp8h7pB1-3" edge="1">
          <mxGeometry width="50" height="50" relative="1" as="geometry">
            <mxPoint x="470" y="360" as="sourcePoint" />
            <mxPoint x="520" y="310" as="targetPoint" />
          </mxGeometry>
        </mxCell>
        <mxCell id="ptOe5hQjl_5FLp8h7pB1-41" value="" style="endArrow=none;html=1;rounded=0;entryX=0.41;entryY=1.075;entryDx=0;entryDy=0;entryPerimeter=0;exitX=0;exitY=0;exitDx=0;exitDy=0;" parent="1" source="ptOe5hQjl_5FLp8h7pB1-47" edge="1">
          <mxGeometry width="50" height="50" relative="1" as="geometry">
            <mxPoint x="400" y="400" as="sourcePoint" />
            <mxPoint x="121" y="203" as="targetPoint" />
          </mxGeometry>
        </mxCell>
        <mxCell id="ptOe5hQjl_5FLp8h7pB1-43" value="" style="endArrow=none;html=1;rounded=0;entryX=0.4;entryY=1;entryDx=0;entryDy=0;entryPerimeter=0;exitX=0;exitY=0.5;exitDx=0;exitDy=0;" parent="1" source="ptOe5hQjl_5FLp8h7pB1-49" target="ptOe5hQjl_5FLp8h7pB1-3" edge="1">
          <mxGeometry width="50" height="50" relative="1" as="geometry">
            <mxPoint x="410" y="410" as="sourcePoint" />
            <mxPoint x="131" y="213" as="targetPoint" />
          </mxGeometry>
        </mxCell>
        <mxCell id="ptOe5hQjl_5FLp8h7pB1-45" value="cart ID" style="ellipse;whiteSpace=wrap;html=1;align=center;fontStyle=4;" parent="1" vertex="1">
          <mxGeometry x="-70" y="480" width="100" height="40" as="geometry" />
        </mxCell>
        <mxCell id="ptOe5hQjl_5FLp8h7pB1-46" value="" style="endArrow=none;html=1;rounded=0;exitX=0;exitY=1;exitDx=0;exitDy=0;entryX=0.5;entryY=0;entryDx=0;entryDy=0;" parent="1" source="ptOe5hQjl_5FLp8h7pB1-5" target="ptOe5hQjl_5FLp8h7pB1-45" edge="1">
          <mxGeometry width="50" height="50" relative="1" as="geometry">
            <mxPoint x="470" y="360" as="sourcePoint" />
            <mxPoint x="520" y="310" as="targetPoint" />
          </mxGeometry>
        </mxCell>
        <mxCell id="ptOe5hQjl_5FLp8h7pB1-47" value="donates" style="shape=rhombus;perimeter=rhombusPerimeter;whiteSpace=wrap;html=1;align=center;rotation=0;" parent="1" vertex="1">
          <mxGeometry x="340" y="296" width="120" height="60" as="geometry" />
        </mxCell>
        <mxCell id="ptOe5hQjl_5FLp8h7pB1-49" value="orders" style="shape=rhombus;perimeter=rhombusPerimeter;whiteSpace=wrap;html=1;align=center;rotation=0;" parent="1" vertex="1">
          <mxGeometry x="726" y="292" width="120" height="60" as="geometry" />
        </mxCell>
        <mxCell id="2ALvyPpzmWErhACQjdhz-2" value="Product Id" style="ellipse;whiteSpace=wrap;html=1;align=center;fontStyle=4;" parent="1" vertex="1">
          <mxGeometry x="47" y="486" width="100" height="40" as="geometry" />
        </mxCell>
        <mxCell id="2ALvyPpzmWErhACQjdhz-3" value="" style="endArrow=none;html=1;rounded=0;exitX=0.5;exitY=1;exitDx=0;exitDy=0;entryX=0.5;entryY=0;entryDx=0;entryDy=0;" parent="1" source="ptOe5hQjl_5FLp8h7pB1-5" target="2ALvyPpzmWErhACQjdhz-2" edge="1">
          <mxGeometry width="50" height="50" relative="1" as="geometry">
            <mxPoint x="90" y="450" as="sourcePoint" />
            <mxPoint x="-10" y="490" as="targetPoint" />
          </mxGeometry>
        </mxCell>
        <mxCell id="2ALvyPpzmWErhACQjdhz-4" value="&lt;u&gt;User ID&lt;/u&gt;" style="ellipse;whiteSpace=wrap;html=1;align=center;" parent="1" vertex="1">
          <mxGeometry x="167" y="503" width="100" height="40" as="geometry" />
        </mxCell>
        <mxCell id="2ALvyPpzmWErhACQjdhz-5" value="" style="endArrow=none;html=1;rounded=0;exitX=0.5;exitY=1;exitDx=0;exitDy=0;entryX=0.5;entryY=0;entryDx=0;entryDy=0;" parent="1" source="ptOe5hQjl_5FLp8h7pB1-5" target="2ALvyPpzmWErhACQjdhz-4" edge="1">
          <mxGeometry width="50" height="50" relative="1" as="geometry">
            <mxPoint x="140" y="450" as="sourcePoint" />
            <mxPoint x="107" y="496" as="targetPoint" />
          </mxGeometry>
        </mxCell>
        <mxCell id="2ALvyPpzmWErhACQjdhz-6" value="Donated Date" style="ellipse;whiteSpace=wrap;html=1;align=center;" parent="1" vertex="1">
          <mxGeometry x="457" y="473" width="100" height="40" as="geometry" />
        </mxCell>
        <mxCell id="2ALvyPpzmWErhACQjdhz-7" value="" style="endArrow=none;html=1;rounded=0;exitX=0.5;exitY=0;exitDx=0;exitDy=0;entryX=1;entryY=1;entryDx=0;entryDy=0;" parent="1" source="2ALvyPpzmWErhACQjdhz-6" target="ptOe5hQjl_5FLp8h7pB1-7" edge="1">
          <mxGeometry width="50" height="50" relative="1" as="geometry">
            <mxPoint x="425" y="496" as="sourcePoint" />
            <mxPoint x="410" y="450" as="targetPoint" />
          </mxGeometry>
        </mxCell>
        <mxCell id="2ALvyPpzmWErhACQjdhz-8" value="Quantity" style="ellipse;whiteSpace=wrap;html=1;align=center;" parent="1" vertex="1">
          <mxGeometry x="500" y="415" width="100" height="40" as="geometry" />
        </mxCell>
        <mxCell id="2ALvyPpzmWErhACQjdhz-9" value="" style="endArrow=none;html=1;rounded=0;exitX=0;exitY=0.5;exitDx=0;exitDy=0;entryX=1;entryY=0.25;entryDx=0;entryDy=0;" parent="1" source="2ALvyPpzmWErhACQjdhz-8" target="ptOe5hQjl_5FLp8h7pB1-7" edge="1">
          <mxGeometry width="50" height="50" relative="1" as="geometry">
            <mxPoint x="517" y="483" as="sourcePoint" />
            <mxPoint x="460" y="450" as="targetPoint" />
          </mxGeometry>
        </mxCell>
        <mxCell id="2ALvyPpzmWErhACQjdhz-13" value="" style="endArrow=none;html=1;rounded=0;exitX=0;exitY=1;exitDx=0;exitDy=0;entryX=1;entryY=0;entryDx=0;entryDy=0;" parent="1" target="ptOe5hQjl_5FLp8h7pB1-3" edge="1">
          <mxGeometry relative="1" as="geometry">
            <mxPoint x="221.79938668707882" y="134.20375624907342" as="sourcePoint" />
            <mxPoint x="120" y="170" as="targetPoint" />
          </mxGeometry>
        </mxCell>
        <mxCell id="2ALvyPpzmWErhACQjdhz-15" value="Contact NO" style="ellipse;shape=doubleEllipse;margin=3;whiteSpace=wrap;html=1;align=center;hachureGap=4;" parent="1" vertex="1">
          <mxGeometry x="210" y="102" width="100" height="40" as="geometry" />
        </mxCell>
        <mxCell id="2ALvyPpzmWErhACQjdhz-17" value="" style="endArrow=none;html=1;rounded=0;entryX=0.5;entryY=0;entryDx=0;entryDy=0;exitX=0.5;exitY=1;exitDx=0;exitDy=0;" parent="1" source="ptOe5hQjl_5FLp8h7pB1-47" target="ptOe5hQjl_5FLp8h7pB1-7" edge="1">
          <mxGeometry width="50" height="50" relative="1" as="geometry">
            <mxPoint x="380" y="321" as="sourcePoint" />
            <mxPoint x="131" y="213" as="targetPoint" />
          </mxGeometry>
        </mxCell>
        <mxCell id="2ALvyPpzmWErhACQjdhz-18" value="" style="endArrow=none;html=1;rounded=0;entryX=0.5;entryY=0;entryDx=0;entryDy=0;exitX=0.5;exitY=1;exitDx=0;exitDy=0;" parent="1" source="ptOe5hQjl_5FLp8h7pB1-49" target="ptOe5hQjl_5FLp8h7pB1-6" edge="1">
          <mxGeometry width="50" height="50" relative="1" as="geometry">
            <mxPoint x="694" y="485" as="sourcePoint" />
            <mxPoint x="760" y="450" as="targetPoint" />
          </mxGeometry>
        </mxCell>
        <mxCell id="2ALvyPpzmWErhACQjdhz-21" value="Add to cart" style="shape=rhombus;perimeter=rhombusPerimeter;whiteSpace=wrap;html=1;align=center;sketch=1;hachureGap=4;jiggle=2;curveFitting=1;" parent="1" vertex="1">
          <mxGeometry x="63" y="296" width="120" height="60" as="geometry" />
        </mxCell>
      </root>
    </mxGraphModel>
  </diagram>
</mxfile>
